<svg width="130" height="130" viewBox="0 0 130 130" fill="none" xmlns="http://www.w3.org/2000/svg">
<defs>
<linearGradient id="paint0_linear_1_53" x1="69.1577" y1="108.35" x2="40.7604" y2="42.5013" gradientUnits="userSpaceOnUse">
<stop stop-color="#3BBBF6"/>
<stop offset="1" stop-color="#1C47DB"/>
</linearGradient>
<linearGradient id="paint1_linear_1_53" x1="30.6145" y1="76.1103" x2="73.7463" y2="35.4175" gradientUnits="userSpaceOnUse">
<stop stop-color="#57D7FF"/>
<stop offset="1" stop-color="#154BD8"/>
</linearGradient>
<linearGradient id="paint2_linear_1_53" x1="48.3399" y1="22.9872" x2="93.453" y2="83.6321" gradientUnits="userSpaceOnUse">
<stop stop-color="#5FDBD4"/>
<stop offset="1" stop-color="#36BEFF"/>
</linearGradient>
</defs>
<path fill-rule="evenodd" clip-rule="evenodd" d="M108.142 52.6938L107.818 52.805C108.081 53.3093 108.333 53.8217 108.573 54.3421C108.441 53.7921 108.297 53.2426 108.142 52.6938ZM48.4518 45.1584C39.8017 54.6912 36.4683 68.5185 40.9393 81.5554C47.0624 99.4095 65.6519 109.451 83.6473 105.289C82.3817 105.86 81.0782 106.377 79.7387 106.836C56.4911 114.809 31.1821 102.426 23.2094 79.1785C17.7662 63.3069 21.8109 46.4744 32.3233 34.8539L32.3959 35.0658C33.506 33.518 35.0909 32.2882 37.0298 31.6233C41.9927 29.9212 47.3958 32.5647 49.0978 37.5277C49.998 40.1523 49.6827 42.9001 48.4518 45.1584Z" fill="url(#paint0_linear_1_53)"/>
<path fill-rule="evenodd" clip-rule="evenodd" d="M83.6851 104.57L83.5224 104.268C83.0679 104.61 82.6035 104.942 82.1295 105.265C82.6504 105.044 83.169 104.812 83.6851 104.57ZM81.3649 44.4506C70.5467 37.4747 56.3606 36.4457 44.2296 42.987C27.6161 51.9454 20.7477 71.9259 27.7943 88.9992C27.0244 87.844 26.3014 86.6425 25.6292 85.396C13.9647 63.7639 22.045 36.7715 43.6772 25.107C58.4459 17.1433 75.713 18.3829 88.8953 26.855L88.6981 26.9613C90.4064 27.8036 91.8787 29.1662 92.8516 30.9703C95.3418 35.5884 93.6167 41.3508 88.9986 43.841C86.5564 45.158 83.794 45.296 81.3649 44.4506Z" fill="url(#paint1_linear_1_53)"/>
<path fill-rule="evenodd" clip-rule="evenodd" d="M25.0014 81.6563L25.3067 81.5008C24.9758 81.0383 24.6544 80.5663 24.3429 80.0849C24.5516 80.6108 24.7711 81.1347 25.0014 81.6563ZM85.1583 80.7446C92.3857 70.0927 93.7466 55.9345 87.4912 43.6537C78.9243 26.835 59.1101 19.5006 41.8764 26.1455C43.0494 25.4028 44.2675 24.7081 45.5293 24.0654C67.4287 12.9106 94.2244 21.6208 105.379 43.5201C112.995 58.4713 111.351 75.7047 102.573 88.6849L102.471 88.4853C101.589 90.1735 100.192 91.6134 98.366 92.5437C93.6908 94.9251 87.9704 93.0656 85.589 88.3905C84.3296 85.918 84.2563 83.1532 85.1583 80.7446Z" fill="url(#paint2_linear_1_53)"/>
</svg>
